<mxfile host="app.diagrams.net" modified="2024-01-26T07:29:06.004Z" agent="Mozilla/5.0 (Windows NT 10.0; Win64; x64) AppleWebKit/537.36 (KHTML, like Gecko) Chrome/120.0.0.0 Safari/537.36" etag="PuBgOf5spULUJJ3GvpHM" version="23.0.1" type="device">
  <diagram id="cOHuTP1pYgrvLO6Tfsh5" name="Страница — 1">
    <mxGraphModel dx="794" dy="412" grid="1" gridSize="10" guides="1" tooltips="1" connect="1" arrows="1" fold="1" page="1" pageScale="1" pageWidth="827" pageHeight="1169" math="0" shadow="0">
      <root>
        <mxCell id="0" />
        <mxCell id="1" parent="0" />
        <mxCell id="Wbz9XeCnoEIk-ah3k2y4-1" style="edgeStyle=orthogonalEdgeStyle;rounded=0;orthogonalLoop=1;jettySize=auto;html=1;entryX=0.5;entryY=0;entryDx=0;entryDy=0;" edge="1" parent="1" source="cre11UN86rXWIP7FDUhN-1" target="cre11UN86rXWIP7FDUhN-3">
          <mxGeometry relative="1" as="geometry" />
        </mxCell>
        <mxCell id="cre11UN86rXWIP7FDUhN-1" value="Начало" style="ellipse;whiteSpace=wrap;html=1;" parent="1" vertex="1">
          <mxGeometry x="354" y="30" width="120" height="70" as="geometry" />
        </mxCell>
        <mxCell id="Wbz9XeCnoEIk-ah3k2y4-2" style="edgeStyle=orthogonalEdgeStyle;rounded=0;orthogonalLoop=1;jettySize=auto;html=1;" edge="1" parent="1" source="cre11UN86rXWIP7FDUhN-3" target="cre11UN86rXWIP7FDUhN-7">
          <mxGeometry relative="1" as="geometry" />
        </mxCell>
        <mxCell id="cre11UN86rXWIP7FDUhN-3" value="Ввести количество строк number" style="shape=parallelogram;perimeter=parallelogramPerimeter;whiteSpace=wrap;html=1;fixedSize=1;" parent="1" vertex="1">
          <mxGeometry x="311" y="130" width="206" height="60" as="geometry" />
        </mxCell>
        <mxCell id="Wbz9XeCnoEIk-ah3k2y4-3" style="edgeStyle=orthogonalEdgeStyle;rounded=0;orthogonalLoop=1;jettySize=auto;html=1;entryX=0.5;entryY=0;entryDx=0;entryDy=0;" edge="1" parent="1" source="cre11UN86rXWIP7FDUhN-7" target="cre11UN86rXWIP7FDUhN-9">
          <mxGeometry relative="1" as="geometry" />
        </mxCell>
        <mxCell id="cre11UN86rXWIP7FDUhN-7" value="i=0&lt;br&gt;k=0&lt;br&gt;j=0" style="rounded=0;whiteSpace=wrap;html=1;" parent="1" vertex="1">
          <mxGeometry x="351" y="250" width="126" height="60" as="geometry" />
        </mxCell>
        <mxCell id="Wbz9XeCnoEIk-ah3k2y4-4" style="edgeStyle=orthogonalEdgeStyle;rounded=0;orthogonalLoop=1;jettySize=auto;html=1;entryX=0.5;entryY=0;entryDx=0;entryDy=0;" edge="1" parent="1" source="cre11UN86rXWIP7FDUhN-9" target="cre11UN86rXWIP7FDUhN-10">
          <mxGeometry relative="1" as="geometry" />
        </mxCell>
        <mxCell id="Wbz9XeCnoEIk-ah3k2y4-7" style="edgeStyle=orthogonalEdgeStyle;rounded=0;orthogonalLoop=1;jettySize=auto;html=1;entryX=0;entryY=0.5;entryDx=0;entryDy=0;" edge="1" parent="1" source="cre11UN86rXWIP7FDUhN-9" target="Wbz9XeCnoEIk-ah3k2y4-5">
          <mxGeometry relative="1" as="geometry" />
        </mxCell>
        <mxCell id="cre11UN86rXWIP7FDUhN-9" value="i&amp;lt;number" style="rhombus;whiteSpace=wrap;html=1;" parent="1" vertex="1">
          <mxGeometry x="374" y="350" width="80" height="80" as="geometry" />
        </mxCell>
        <mxCell id="Wbz9XeCnoEIk-ah3k2y4-15" style="edgeStyle=orthogonalEdgeStyle;rounded=0;orthogonalLoop=1;jettySize=auto;html=1;entryX=0.5;entryY=1;entryDx=0;entryDy=0;" edge="1" parent="1" source="cre11UN86rXWIP7FDUhN-10" target="Wbz9XeCnoEIk-ah3k2y4-14">
          <mxGeometry relative="1" as="geometry">
            <mxPoint x="250" y="510" as="targetPoint" />
          </mxGeometry>
        </mxCell>
        <mxCell id="cre11UN86rXWIP7FDUhN-10" value="arraystring.length[i}&amp;lt;4" style="rhombus;whiteSpace=wrap;html=1;" parent="1" vertex="1">
          <mxGeometry x="334" y="470" width="160" height="80" as="geometry" />
        </mxCell>
        <mxCell id="Wbz9XeCnoEIk-ah3k2y4-8" style="edgeStyle=orthogonalEdgeStyle;rounded=0;orthogonalLoop=1;jettySize=auto;html=1;entryX=0.5;entryY=0;entryDx=0;entryDy=0;" edge="1" parent="1" source="Wbz9XeCnoEIk-ah3k2y4-5" target="Wbz9XeCnoEIk-ah3k2y4-6">
          <mxGeometry relative="1" as="geometry" />
        </mxCell>
        <mxCell id="Wbz9XeCnoEIk-ah3k2y4-5" value="print(newArrayString)&lt;br&gt;" style="rounded=0;whiteSpace=wrap;html=1;" vertex="1" parent="1">
          <mxGeometry x="560" y="360" width="120" height="60" as="geometry" />
        </mxCell>
        <mxCell id="Wbz9XeCnoEIk-ah3k2y4-6" value="End" style="ellipse;whiteSpace=wrap;html=1;aspect=fixed;" vertex="1" parent="1">
          <mxGeometry x="580" y="470" width="80" height="80" as="geometry" />
        </mxCell>
        <mxCell id="Wbz9XeCnoEIk-ah3k2y4-13" style="edgeStyle=orthogonalEdgeStyle;rounded=0;orthogonalLoop=1;jettySize=auto;html=1;entryX=0;entryY=0.5;entryDx=0;entryDy=0;exitX=0;exitY=0.75;exitDx=0;exitDy=0;" edge="1" parent="1" source="Wbz9XeCnoEIk-ah3k2y4-9" target="cre11UN86rXWIP7FDUhN-9">
          <mxGeometry relative="1" as="geometry">
            <mxPoint x="310.9999999999999" y="381.34" as="targetPoint" />
            <mxPoint x="285.64" y="638.7" as="sourcePoint" />
            <Array as="points">
              <mxPoint x="354" y="650" />
              <mxPoint x="183" y="650" />
              <mxPoint x="183" y="381" />
              <mxPoint x="374" y="381" />
            </Array>
          </mxGeometry>
        </mxCell>
        <mxCell id="Wbz9XeCnoEIk-ah3k2y4-9" value="&lt;br&gt;&lt;span style=&quot;color: rgb(0, 0, 0); font-family: Helvetica; font-size: 12px; font-style: normal; font-variant-ligatures: normal; font-variant-caps: normal; font-weight: 400; letter-spacing: normal; orphans: 2; text-align: center; text-indent: 0px; text-transform: none; widows: 2; word-spacing: 0px; -webkit-text-stroke-width: 0px; background-color: rgb(251, 251, 251); text-decoration-thickness: initial; text-decoration-style: initial; text-decoration-color: initial; float: none; display: inline !important;&quot;&gt;newArrayString[j]= arraystring[i}&lt;br&gt;&lt;/span&gt;i+=1&lt;br&gt;j+=1" style="rounded=0;whiteSpace=wrap;html=1;" vertex="1" parent="1">
          <mxGeometry x="286" y="600" width="256" height="90" as="geometry" />
        </mxCell>
        <mxCell id="Wbz9XeCnoEIk-ah3k2y4-10" value="Yes" style="edgeStyle=orthogonalEdgeStyle;rounded=0;orthogonalLoop=1;jettySize=auto;html=1;entryX=0.5;entryY=0;entryDx=0;entryDy=0;" edge="1" parent="1" source="cre11UN86rXWIP7FDUhN-10" target="Wbz9XeCnoEIk-ah3k2y4-9">
          <mxGeometry relative="1" as="geometry">
            <Array as="points">
              <mxPoint x="414" y="580" />
              <mxPoint x="414" y="580" />
            </Array>
          </mxGeometry>
        </mxCell>
        <mxCell id="Wbz9XeCnoEIk-ah3k2y4-16" style="edgeStyle=orthogonalEdgeStyle;rounded=0;orthogonalLoop=1;jettySize=auto;html=1;entryX=0;entryY=0.5;entryDx=0;entryDy=0;exitX=0.5;exitY=0;exitDx=0;exitDy=0;" edge="1" parent="1" source="Wbz9XeCnoEIk-ah3k2y4-14" target="cre11UN86rXWIP7FDUhN-9">
          <mxGeometry relative="1" as="geometry">
            <mxPoint x="260" y="400" as="targetPoint" />
          </mxGeometry>
        </mxCell>
        <mxCell id="Wbz9XeCnoEIk-ah3k2y4-14" value="i+=1" style="rounded=0;whiteSpace=wrap;html=1;" vertex="1" parent="1">
          <mxGeometry x="200" y="420" width="120" height="60" as="geometry" />
        </mxCell>
      </root>
    </mxGraphModel>
  </diagram>
</mxfile>
